<svg width="46" height="21" viewBox="0 0 46 21" fill="none" xmlns="http://www.w3.org/2000/svg">
<path d="M2.69617 12.75H37.6629L33.8513 16.5614C33.4118 17.001 33.1649 17.5971 33.1649 18.2187C33.1649 18.8404 33.4118 19.4365 33.8513 19.8761C34.2909 20.3156 34.887 20.5626 35.5087 20.5626C36.1303 20.5626 36.7264 20.3156 37.166 19.8761L44.9785 12.0636C45.1961 11.8459 45.3688 11.5876 45.4866 11.3032C45.6044 11.0188 45.665 10.714 45.665 10.4062C45.665 10.0984 45.6044 9.79366 45.4866 9.5093C45.3688 9.22494 45.1961 8.96656 44.9785 8.74892L37.166 0.936419C36.7264 0.49687 36.1303 0.249933 35.5087 0.249933C34.887 0.249933 34.2909 0.49687 33.8513 0.936419C33.4118 1.37597 33.1649 1.97213 33.1649 2.59374C33.1649 3.21536 33.4118 3.81152 33.8513 4.25107L37.6629 8.06249H2.69617C2.07457 8.06249 1.47842 8.30942 1.03889 8.74896C0.599347 9.1885 0.352417 9.78464 0.352417 10.4062C0.352417 11.0278 0.599347 11.624 1.03889 12.0635C1.47842 12.5031 2.07457 12.75 2.69617 12.75Z" fill="#626262"/>
</svg>
